<?xml version="1.0" encoding="utf-8"?>
<!-- Generator: Adobe Illustrator 21.0.2, SVG Export Plug-In . SVG Version: 6.00 Build 0)  -->
<svg xmlns="http://www.w3.org/2000/svg" xmlns:xlink="http://www.w3.org/1999/xlink" version="1.1" id="Layer_1" x="0px" y="0px" viewBox="0 0 100 100" enable-background="new 0 0 100 100" xml:space="preserve" width="512" height="512">
<g>
	<circle fill="#EFC84A" cx="50" cy="50" r="48"/>
	<path opacity="0.1" d="M98,50c0-0.8007202-0.0216064-1.5964355-0.0603027-2.3875732l-24.8197021-24.812439l-0.0200195-0.0200195   C72.960022,22.6099854,72.7399902,22.5,72.5,22.5h-7.8599854c-0.4500122,0-0.8200073,0.3699951-0.8200073,0.8200073v4.0799561   H24.8300171c-1.2800293,0-2.3300171,1.0400391-2.3300171,2.3300171v31.8499756c0,0.6700439,0.289978,1.2800293,0.7399902,1.7000122   l3.6799927,3.6799927v5.6400146l25.3428345,25.3428345C77.7213135,96.7607422,98,75.7506714,98,50z"/>
	<g>
		<path fill="#27A2DB" d="M75.1657715,27.3976135h-50.331543c-1.2891846,0-2.3342285,1.0450439-2.3342285,2.3341675v31.8498535    c0,1.2891235,1.0450439,2.3342285,2.3342285,2.3342285h2.0841064v8.6865234l8.6865234-8.6865234h39.5609131    c1.2891846,0,2.3342285-1.045105,2.3342285-2.3342285V29.731781C77.5,28.4426575,76.4549561,27.3976135,75.1657715,27.3976135z"/>
		<g>
			<rect x="26.6490326" y="32.0543976" fill="#2D93BA" width="46.7019348" height="3.0583568"/>
			<rect x="26.6490326" y="39.7416191" fill="#2D93BA" width="46.7019348" height="3.0583568"/>
			<rect x="26.6490326" y="47.4288406" fill="#2D93BA" width="46.7019348" height="3.0583568"/>
			<rect x="26.6490326" y="55.1160583" fill="#2D93BA" width="46.7019348" height="3.0583568"/>
		</g>
		<g>
			<path fill="#FCD462" d="M63.8200111,68.0140305c0,1.037468,0.2667198,2.0574722,0.774395,2.9621964l3.5082245,6.2518311     c0.2035294,0.362587,0.7254868,0.362587,0.9288635,0l3.5080719-6.2518311     c0.5076675-0.9047241,0.7743912-1.9247284,0.7743912-2.9621964H63.8200111z"/>
			<rect x="63.8200493" y="29.5751266" fill="#FFFFFF" width="9.4938726" height="2.5180144"/>
			<path fill="#EAC25C" d="M63.8200111,31.2159042v36.7981262c0,0.873909,0.7085686,1.5823212,1.582325,1.5823212     c0.8740692,0,1.5823212-0.7084122,1.5823212-1.5823212V31.2159042H63.8200111z"/>
			<path fill="#EAB454" d="M66.9846573,31.2159042v36.7981262c0,0.873909,0.7085724,1.5823212,1.5823288,1.5823212     c0.873909,0,1.5823212-0.7084122,1.5823212-1.5823212V31.2159042H66.9846573z"/>
			<path fill="#DC8744" d="M70.1493073,31.2159042v36.7981262c0,0.873909,0.7085724,1.5823212,1.5823288,1.5823212     c0.873909,0,1.5823212-0.7084122,1.5823212-1.5823212V31.2159042H70.1493073z"/>
			<path fill="#E56353" d="M72.4982681,22.5h-7.8624115c-0.4505386,0-0.8158455,0.3653069-0.8158455,0.8158474v6.8501663h9.4939461     v-6.8501663C73.3139572,22.8653069,72.9488068,22.5,72.4982681,22.5z"/>
			<path fill="#64798A" d="M69.0314941,77.2280579l1.6933365-3.0177002     c-0.6155777-0.4177094-1.3579865-0.6622314-2.1578445-0.6622314s-1.5422745,0.2445984-2.1576843,0.6622314l1.6933289,3.0177002     C68.30616,77.5905685,68.8279648,77.5905685,69.0314941,77.2280579z"/>
		</g>
	</g>
</g>
</svg>
