<?xml version="1.0" encoding="utf-8"?>
<!-- Generator: Adobe Illustrator 21.0.2, SVG Export Plug-In . SVG Version: 6.00 Build 0)  -->
<svg xmlns="http://www.w3.org/2000/svg" xmlns:xlink="http://www.w3.org/1999/xlink" version="1.1" id="Layer_1" x="0px" y="0px" viewBox="0 0 100 100" enable-background="new 0 0 100 100" xml:space="preserve" width="512" height="512">
<g>
	<circle fill="#334D5C" cx="50" cy="50" r="48"/>
	<path opacity="0.1" d="M49.8200073,22.5c-7.1500244,0.039978-12.9299927,2.4199829-12.9299927,8.1599731v7.0499878   l0.0999756,0.2800293c0.1699829,2.4199829,0.8500366,14.710022-1.8699951,21.3399658l-1.4899902,0.3800049   c-2.539978,0.6500244-4.3599854,2.8600464-4.5100098,5.4700317L28.4099731,77.5l20.4718018,20.4717407   C49.2547607,97.9802856,49.624939,98,50,98c22.6008301,0,41.5419922-15.6243286,46.6397705-36.6578979l-35.40979-35.4020996   C58.9000244,23.5299683,54.6599731,22.4699707,49.8200073,22.5z"/>
	<g>
		<path fill="#64798A" d="M63.0427742,37.5634117l-10.9092216-1.7062149v-0.2483559l-0.8709564,0.1121941l-0.7171707-0.1121941    v0.2045212L36.957222,37.5634117c0,0,1.3106422,15.7910156-2.2930603,22.7649422h15.8812637h1.5881271h13.2022858    C61.732132,53.3544273,63.0427742,37.5634117,63.0427742,37.5634117z"/>
		<path fill="#F6C358" d="M56.9755745,57.3049011h-0.0006714v-4.6887779H43.0250282v4.6887779l-2.8633003,0.7323265    c0.6144638,4.8868446,4.78479,14.2290154,9.8383293,14.2290154c5.0533142,0,9.2239037-9.3422279,9.8381424-14.229126    L56.9755745,57.3049011z"/>
		<path fill="#FCD462" d="M60.0938225,39.8442574c-0.1529121-0.4525566-1.1357231-6.5463257-1.3406906-6.962265H40.313736    c-0.2049675,0.4159393-0.254631,6.5097084-0.4075394,6.962265c-1.3401642,0.0015488-2.4261551,1.1292534-2.4261551,3.2022209    c0,2.0176277,1.0288315,4.1867256,2.3194656,4.3039436c1.3759155,5.0054436,6.913105,10.4343262,10.2005005,10.4343262    c3.0444298,0,8.824543-5.4288826,10.2005043-10.4343262c1.2905922-0.1171989,2.3194427-2.2863159,2.3194427-4.3039436    C62.5199547,40.9735107,61.4339867,39.8458061,60.0938225,39.8442574z"/>
		<path fill="#31978C" d="M63.1096878,37.710598l-1.8445244,5.1880875    c-0.2026138,0.5698853-1.0089569,0.8358154-1.6526985,0.5466232C58.1090851,42.7699699,55.1037827,41.8330879,50,41.8330879    s-8.1090889,0.936882-9.6124687,1.6122208c-0.6437416,0.2891922-1.4500847,0.023262-1.6526985-0.5466232l-1.8445244-5.1880875    l10.2602654-4.819294l12.9350166,2.6490936L63.1096878,37.710598z"/>
		<path fill="#44C4A1" d="M49.8175926,22.5005112c-7.1513977,0.0400181-12.927269,2.4167633-12.927269,8.1639557v7.0461044    c8.7397461-3.6643753,17.4796066-3.6643753,26.2194672,0v-6.9655647    C63.1097908,24.8777065,57.141407,22.4595394,49.8175926,22.5005112z"/>
		<polygon fill="#31978C" points="50,25.5317001 51.0655785,27.6908016 53.4482918,28.0370312 51.724144,29.7176571     52.1311607,32.0907402 50,30.9703236 47.8688354,32.0907402 48.2758522,29.7176571 46.5517044,28.0370312 48.9344177,27.6908016       "/>
		<path fill="#E56353" d="M70.8775024,65.177597c-0.150528-2.6093864-1.9723663-4.8213501-4.5045242-5.4690361l-5.125824-1.3110352    l-4.2715797-1.0926247l-6.9756088,5.4319839l-6.9749374-5.4319839l-4.272068,1.0926819l-5.1258278,1.3110352    c-2.5321579,0.6476288-4.3541031,2.8595924-4.504631,5.4689789L28.4118404,77.5h43.1763153L70.8775024,65.177597z"/>
		<path fill="#FFFFFF" d="M64.6401596,68.895462h-7.6181335c-0.3154259,0-0.5713577,0.2557602-0.5713577,0.5713577v1.8092575    c0,0.3155365,0.2559319,0.5713577,0.5713577,0.5713577h7.6181335c0.3155441,0,0.5712509-0.2558212,0.5712509-0.5713577v-1.8092575    C65.2114105,69.1512222,64.9557037,68.895462,64.6401596,68.895462z"/>
		<polygon fill="#D15241" points="56.9749031,57.3049011 51.0711823,61.9065704 55.1005173,66.2904205 58.956852,57.8011322   "/>
		<polygon fill="#D15241" points="43.0428391,57.3049011 48.9465561,61.9065704 44.9172211,66.2904205 41.0608864,57.8011322   "/>
		<polygon fill="#D15241" points="50,62.736866 48.9376564,61.9096336 48.9376564,77.5 51.0623436,77.5 51.0623436,61.9096336   "/>
		<circle fill="#CE412D" cx="50" cy="65.8071976" r="0.4832238"/>
		<circle fill="#CE412D" cx="50" cy="70.3714447" r="0.4832238"/>
		<circle fill="#CE412D" cx="50" cy="74.9356918" r="0.4832238"/>
	</g>
</g>
</svg>
