<?xml version="1.0" encoding="utf-8"?>
<!-- Generator: Adobe Illustrator 21.0.2, SVG Export Plug-In . SVG Version: 6.00 Build 0)  -->
<svg xmlns="http://www.w3.org/2000/svg" xmlns:xlink="http://www.w3.org/1999/xlink" version="1.1" id="Layer_1" x="0px" y="0px" viewBox="0 0 100 100" enable-background="new 0 0 100 100" xml:space="preserve" width="512" height="512">
<g>
	<circle fill="#45B39C" cx="50" cy="50" r="48"/>
	<path opacity="0.1" d="M96.619751,61.4288101L57.7199707,22.5291519H22.5v48.6999512l26.7518921,26.7519531   c0.25,0.0039063,0.4971924,0.0189209,0.7481079,0.0189209C72.5698853,97.9999771,91.4910889,82.4188004,96.619751,61.4288101z"/>
	<g>
		<g>
			<rect x="22.5012875" y="22.5282974" fill="#F6C358" width="35.2196846" height="41.6195221"/>
			<rect x="22.5000019" y="22.5281143" fill="#FCD462" width="17.6128426" height="41.6183815"/>
			<circle fill="#DC8744" cx="31.998785" cy="25.776516" r="1.1689726"/>
			<circle fill="#DC8744" cx="48.2268753" cy="25.776516" r="1.1689726"/>
			<path fill="#DC8744" d="M40.1125641,40.2689934c-4.8949547,0-8.8770885-4.1941338-8.8770885-9.3491478v-5.4687271h1.5260868     v5.4687271c0,4.3137283,3.2973328,7.8230591,7.3510017,7.8230591s7.3509979-3.5093307,7.3509979-7.8230591v-5.4687271h1.5260887     v5.4687271C48.9896507,36.0748596,45.007515,40.2689934,40.1125641,40.2689934z"/>
			<path fill="#FFFFFF" d="M40.1125641,39.4962616c-4.8949547,0-8.8770885-3.982132-8.8770885-8.8770885v-5.1680546h1.5260868     v5.1680546c0,4.053297,3.2973328,7.3509998,7.3510017,7.3509998s7.3509979-3.2977028,7.3509979-7.3509998v-5.1680546h1.5260887     v5.1680546C48.9896507,35.5141296,45.007515,39.4962616,40.1125641,39.4962616z"/>
		</g>
		<polygon fill="#64798A" points="77.5,48.4316444 77.5,71.231636 22.5000019,71.231636 22.5000019,63.1916542     57.7299805,63.1916542 57.7299805,34.8216591 66.2099609,34.8216591   "/>
		<polygon fill="#27A2DB" points="75.5,52.201664 75.5,49.1538124 65.2705078,36.8217812 59.7294922,36.8217812     59.7294922,52.201664   "/>
		<rect x="59.7294922" y="54.4676704" fill="#3A556A" width="0.9969312" height="3.8978038"/>
		<path fill="#FCD462" d="M75.2841797,60.4169044c0,1.2236938,0.9921875,2.2156372,2.2158203,2.2156372v-4.4312134    C76.2763672,58.2013283,75.2841797,59.1932716,75.2841797,60.4169044z"/>
		<g>
			<path fill="#2F4859" d="M27.8710957,71.3055038c0-3.9521484,3.2148438-7.1669922,7.1669903-7.1669922     s7.1669922,3.2148438,7.1669922,7.1669922"/>
			<circle fill="#3A556A" cx="35.0379486" cy="71.3051682" r="6.1667151"/>
			<circle fill="#2F4859" cx="35.0379486" cy="71.3051682" r="3.408767"/>
			<circle fill="#64798A" cx="35.0379486" cy="71.3051682" r="0.5349361"/>
			<g>
				<circle fill="#64798A" cx="35.0379486" cy="68.9658203" r="0.5349361"/>
				<circle fill="#64798A" cx="35.0379486" cy="73.644516" r="0.5349361"/>
			</g>
			<g>
				
					<ellipse transform="matrix(0.8660254 -0.5 0.5 0.8660254 -31.8146496 26.2157955)" fill="#64798A" cx="33.0120163" cy="72.4748459" rx="0.5349361" ry="0.5349361"/>
				
					<ellipse transform="matrix(0.8660254 -0.5 0.5 0.8660254 -30.102129 27.9283161)" fill="#64798A" cx="37.0638847" cy="70.135498" rx="0.5349361" ry="0.5349361"/>
			</g>
			<g>
				
					<ellipse transform="matrix(0.5 -0.8660254 0.8660254 0.5 -44.2331123 68.3356857)" fill="#64798A" cx="37.0638847" cy="72.4748459" rx="0.5349361" ry="0.5349361"/>
				
					<ellipse transform="matrix(0.5 -0.8660254 0.8660254 0.5 -44.2331123 63.6569901)" fill="#64798A" cx="33.0120163" cy="70.135498" rx="0.5349361" ry="0.5349361"/>
			</g>
		</g>
		<g>
			<path fill="#2F4859" d="M59.4454498,71.3055038c0-3.9521484,3.2148438-7.1669922,7.1669922-7.1669922     s7.1669922,3.2148438,7.1669922,7.1669922"/>
			<circle fill="#3A556A" cx="66.6123047" cy="71.3051682" r="6.1667151"/>
			<circle fill="#2F4859" cx="66.6123047" cy="71.3051682" r="3.408767"/>
			<circle fill="#64798A" cx="66.6123047" cy="71.3051682" r="0.5349361"/>
			<g>
				<circle fill="#64798A" cx="66.6123047" cy="68.9658203" r="0.5349361"/>
				<circle fill="#64798A" cx="66.6123047" cy="73.644516" r="0.5349361"/>
			</g>
			<g>
				
					<ellipse transform="matrix(0.8660254 -0.5 0.5 0.8660254 -27.5844879 42.0029716)" fill="#64798A" cx="64.5863724" cy="72.4748459" rx="0.5349361" ry="0.5349361"/>
				
					<ellipse transform="matrix(0.8660254 -0.5 0.5 0.8660254 -25.8719673 43.7154961)" fill="#64798A" cx="68.638237" cy="70.135498" rx="0.5349361" ry="0.5349361"/>
			</g>
			<g>
				
					<ellipse transform="matrix(0.5 -0.8660254 0.8660254 0.5 -28.4459343 95.6798782)" fill="#64798A" cx="68.638237" cy="72.4748459" rx="0.5349361" ry="0.5349361"/>
				
					<ellipse transform="matrix(0.5 -0.8660254 0.8660254 0.5 -28.4459343 91.0011826)" fill="#64798A" cx="64.5863724" cy="70.135498" rx="0.5349361" ry="0.5349361"/>
			</g>
		</g>
		<path fill="#FCD462" d="M22.5000019,66.8806839v2.4515381h1.0771484c0.2397461,0,0.434082-0.1942749,0.434082-0.43396v-2.0175781    H22.5000019z"/>
		<path fill="#E56353" d="M24.0112324,65.2285843c0-0.239624-0.1943359-0.43396-0.434082-0.43396h-1.0771484v2.0860596h1.5112305    V65.2285843z"/>
	</g>
</g>
</svg>
