<?xml version="1.0" encoding="utf-8"?>
<!-- Generator: Adobe Illustrator 21.0.2, SVG Export Plug-In . SVG Version: 6.00 Build 0)  -->
<svg xmlns="http://www.w3.org/2000/svg" xmlns:xlink="http://www.w3.org/1999/xlink" version="1.1" id="Layer_1" x="0px" y="0px" viewBox="0 0 100 100" enable-background="new 0 0 100 100" xml:space="preserve" width="512" height="512">
<g>
	<circle fill="#45B39C" cx="50" cy="50" r="48"/>
	<path opacity="0.1" d="M70.2399902,24.0199585c-0.9799805,0-1.7799683,0.8000488-1.7799683,1.7900391v0.1199951   c-1.9000244,0.9699707-15.6900024,7.9099731-25.6400146,9.289978l-0.2399902-0.25   c-0.0599976-0.0799561-0.1300049-0.1499634-0.210022-0.2099609l-0.0299683-0.0300293   c-0.1900024-0.1400146-0.4200439-0.2199707-0.6700439-0.2199707H26.5599976c-0.6199951,0-1.1300049,0.5099487-1.1300049,1.1399536   v1.5599976h-2.0200195c-0.5,0-0.9099731,0.4100342-0.9099731,0.9100342v10.1799927   c0,0.2199707,0.0900269,0.4099731,0.2199707,0.5700073L22.75,48.8999634   c0.0100098,0.0200195,0.0300293,0.0400391,0.0499878,0.0599976l7.1000366,7.1000366l3,18.6300049   c0.0499878,0.3299561,0.2199707,0.6099854,0.4400024,0.8299561v0.0100098l0.0699463,0.0700073   c0.0100098,0.0100098,0.0100098,0.0100098,0.0100098,0.0100098l22.0684204,22.0684204   c23.5890503-2.6868286,41.9758301-22.465271,42.4855957-46.651001L71.5900269,24.6499634   C71.2700195,24.2699585,70.7800293,24.0199585,70.2399902,24.0199585z"/>
	<g>
		<path fill="#3A556A" d="M41.5597725,54.8926201h-3.3981247c-0.4596558,0-0.8321991,0.3725929-0.8321991,0.8321991v7.6978455    c0,0.4596062,0.3725433,0.8322029,0.8321991,0.8322029h3.3981247c0.45961,0,0.8322029-0.3725967,0.8322029-0.8322029v-7.6978455    C42.3919754,55.265213,42.0193825,54.8926201,41.5597725,54.8926201z"/>
		<path fill="#64798A" d="M42.5698433,72.0211868h-0.310112l-4.0272903-21.0828552h-9.1540241L32.8984451,74.6875    c0.1194611,0.7425079,0.7602272,1.2884903,1.5122986,1.2884903h8.0729675c1.032486,0,1.9552422-0.7540817,2.0541534-1.7818756    C44.6512794,73.015007,43.7257195,72.0211868,42.5698433,72.0211868z"/>
		<path fill="#CE412D" d="M23.4064865,37.2129364c-0.5006599,0-0.9064846,0.4058266-0.9064846,0.9064598v10.1770973    c0,0.5006332,0.4058247,0.9064598,0.9064846,0.9064598h3.2549667V37.2129364H23.4064865z"/>
		<path fill="#D15241" d="M70.6200104,36.3279419v13.7600555c3.799736,0,6.8799896-3.0802841,6.8799896-6.8800278    S74.4197464,36.3279419,70.6200104,36.3279419z"/>
		<path fill="#EBF0F3" d="M70.2443085,43.2099609l-1.5635834,17.3938713c0,0-16.7800751-8.7674217-27.489006-9.5849495V35.397007    c10.708931-0.8175278,27.489006-9.5849476,27.489006-9.5849476L70.2443085,43.2099609z"/>
		<path fill="#E56353" d="M70.2442169,62.3919487h-0.0000076c-0.9878311,0-1.7886353-0.8008003-1.7886353-1.7886353V25.8126411    c0-0.9878349,0.8008041-1.7886333,1.7886353-1.7886333h0.0000076c0.9878311,0,1.7886276,0.8007984,1.7886276,1.7886333v34.7906723    C72.0328445,61.5911484,71.232048,62.3919487,70.2442169,62.3919487z"/>
		<path fill="#D15241" d="M41.6734352,34.5141449H26.564949c-0.6293621,0-1.1395569,0.5101967-1.1395569,1.1395569V50.762188    c0,0.629364,0.5101948,1.1395569,1.1395569,1.1395569h15.1084862c0.629364,0,1.1395569-0.5101929,1.1395569-1.1395569V35.6537018    C42.8129921,35.0243416,42.3027992,34.5141449,41.6734352,34.5141449z"/>
		<g>
			<path fill="#CE412D" d="M39.8463821,37.8309708H28.392004c-0.5347767,0-0.9682808,0.433506-0.9682808,0.9682579v0.0000229     c0,0.5347519,0.4335041,0.9682579,0.9682808,0.9682579h11.4543781c0.5347748,0,0.9682808-0.433506,0.9682808-0.9682579     v-0.0000229C40.8146629,38.2644768,40.3811569,37.8309708,39.8463821,37.8309708z"/>
			<path fill="#CE412D" d="M39.8463821,42.2396774H28.392004c-0.5347767,0-0.9682808,0.4335022-0.9682808,0.9682541v0.0000267     c0,0.5347519,0.4335041,0.9682541,0.9682808,0.9682541h11.4543781c0.5347748,0,0.9682808-0.4335022,0.9682808-0.9682541     v-0.0000267C40.8146629,42.6731796,40.3811569,42.2396774,39.8463821,42.2396774z"/>
			<path fill="#CE412D" d="M39.8463821,46.6483841H28.392004c-0.5347767,0-0.9682808,0.4335022-0.9682808,0.9682541v0.0000267     c0,0.5347481,0.4335041,0.9682541,0.9682808,0.9682541h11.4543781c0.5347748,0,0.9682808-0.433506,0.9682808-0.9682541     v-0.0000267C40.8146629,47.0818863,40.3811569,46.6483841,39.8463821,46.6483841z"/>
		</g>
	</g>
</g>
</svg>
