<?xml version="1.0" encoding="utf-8"?>
<!-- Generator: Adobe Illustrator 21.0.2, SVG Export Plug-In . SVG Version: 6.00 Build 0)  -->
<svg xmlns="http://www.w3.org/2000/svg" xmlns:xlink="http://www.w3.org/1999/xlink" version="1.1" id="Layer_1" x="0px" y="0px" viewBox="0 0 100 100" enable-background="new 0 0 100 100" xml:space="preserve" width="512" height="512">
<g>
	<circle fill="#45B39C" cx="50" cy="50" r="48"/>
	<path opacity="0.1" d="M62.2399902,27.9500122C59.210022,24.6099854,54.8400269,22.5,49.9799805,22.5   c-4.8699951,0-9.25,2.1199951-12.289978,5.4799805L22.5,34.4400024l5.9799805,6.7799683h0.0100098l-4.5999756,8.8200073   l4.5999756,4.6000366v17.4799805l25.6802979,25.6882935c23.0012207-1.9813232,41.3647461-20.1724243,43.597168-43.1008301   L77.5,34.4400024L62.2399902,27.9500122z"/>
	<g>
		<polygon fill="#FCD462" points="49.9800529,64.4571075 71.4663391,59.0760078 71.4663391,32.1704941 49.9800529,37.5515976   "/>
		<polygon fill="#F6C358" points="49.9800529,64.4571075 28.4937649,59.0760078 28.4937649,32.1704941 49.9800529,37.5515976   "/>
		<polygon fill="#EAAF47" points="22.5000019,34.4359474 42.8814278,25.7707729 48.8615646,32.5537949 28.4801388,41.2189674   "/>
		<polygon fill="#F6C358" points="77.5,34.4359474 57.118576,25.7707729 51.1384392,32.5537949 71.5198669,41.2189674   "/>
		<g>
			<ellipse fill="#27A2DB" cx="49.9800529" cy="39.0659904" rx="16.2077026" ry="16.1850796"/>
			<path fill="#FFFFFF" d="M49.9807396,22.5c-9.1473846,0-16.5898361,7.4313774-16.5898361,16.5659904     s7.4424515,16.5659943,16.5898361,16.5659943s16.588459-7.4313774,16.588459-16.5659943S59.1281204,22.5,49.9807396,22.5z      M50.6830101,32.9093895c2.3749733-0.060524,4.7629776-0.4205894,7.2785416-1.0932026     c0.6426086,1.9607449,1.0225487,4.1871281,1.0877037,6.5485134h-8.3662453V32.9093895z M50.6830101,31.4936199v-7.5317078     c2.8138962,0.3615189,5.2728806,2.8591042,6.7880135,6.5317326     C55.1277695,31.1078739,52.8999062,31.4345512,50.6830101,31.4936199z M49.2784653,23.9619122v7.5319653     c-2.2179222-0.0582142-4.4464722-0.3847179-6.7898979-0.9988632     C44.0037003,26.8216152,46.4633713,24.323431,49.2784653,23.9619122z M49.2784653,32.9095612v5.4551392h-8.3676147     c0.065155-2.3609581,0.4447517-4.5870857,1.0873604-6.5475712     C44.5144615,32.4896584,46.9026337,32.8493805,49.2784653,32.9095612z M39.5075073,38.3647003h-4.6763954     c0.1368217-2.9656029,1.1197624-5.7099915,2.7285118-7.9944153c1.0648956,0.4022675,2.1027031,0.7615585,3.1139374,1.0686321     C39.9836311,33.527813,39.574028,35.875843,39.5075073,38.3647003z M39.5075073,39.7672844     c0.0665207,2.4893684,0.4761238,4.8378258,1.1663971,6.9269791c-1.010891,0.3071594-2.0485268,0.6666222-3.1130791,1.0689774     c-1.609436-2.2847672-2.5928917-5.0296707-2.7297134-7.9959564H39.5075073z M40.9108505,39.7672844h8.3676147v5.4555664     c-2.3756599,0.0603523-4.7640038,0.4202461-7.279911,1.093029     C41.3559456,44.3551369,40.9760056,42.1287537,40.9108505,39.7672844z M49.2784653,46.637249v7.5328217     c-2.8149223-0.3614311-5.27425-2.8594475-6.7895546-6.5325012C44.8319931,47.0229111,47.0605431,46.6959763,49.2784653,46.637249     z M50.6830101,54.1700706v-7.5329056c2.2174072,0.0585556,4.4457893,0.3851471,6.7888718,0.9992905     C55.9569206,51.310112,53.4974213,53.8084679,50.6830101,54.1700706z M50.6830101,45.2228508v-5.4555664h8.3662453     c-0.065155,2.361042-0.4447517,4.5870819-1.0873604,6.547657C55.445816,45.6427536,53.0578117,45.2831192,50.6830101,45.2228508z      M60.4525986,39.7672844h4.6763916c-0.1368179,2.9654274-1.1197586,5.7096481-2.7281647,7.994072     c-1.0650673-0.4020958-2.1027069-0.7613029-3.1139374-1.0682907     C59.9768181,44.6041679,60.3862457,42.2561378,60.4525986,39.7672844z M60.4525986,38.3647003     c-0.0663528-2.4892845-0.4759521-4.8376579-1.1660538-6.9268112c1.010891-0.3071575,2.0485268-0.6665363,3.1130791-1.0688038     c1.6090889,2.2846813,2.5925484,5.029501,2.7293663,7.995615H60.4525986z M61.4941788,29.207655     c-0.9189911,0.3385754-1.8184357,0.6441078-2.696106,0.9077778c-0.862236-2.1090164-2.019207-3.8821945-3.3783188-5.1899281     C57.787014,25.8368778,59.8688011,27.3171082,61.4941788,29.207655z M44.5415497,24.925333     c-1.3599663,1.3080769-2.5172806,3.0818539-3.3796883,5.1917248c-0.8778419-0.26367-1.7776299-0.5693722-2.6969643-0.9081192     C40.0909615,27.3177071,42.1734352,25.8368778,44.5415497,24.925333z M38.4662704,48.9244156     c0.9188194-0.3388329,1.818264-0.6447067,2.6959343-0.9085503c0.8624077,2.1093597,2.0197182,3.8828812,3.3793449,5.1907845     C42.1739502,52.2953644,40.0919914,50.8150444,38.4662704,48.9244156z M55.419754,53.2064781     c1.3596268-1.3081627,2.5167656-3.0821114,3.3791771-5.1919823c0.8778419,0.2636719,1.7774582,0.5695457,2.6966209,0.9082069     C59.8698311,50.8139343,57.7877007,52.2948494,55.419754,53.2064781z"/>
		</g>
		<g>
			<polygon fill="#FCD462" points="49.9800529,77.5 28.4937649,72.1188965 28.4937649,41.2189674 49.9800529,46.600071    "/>
			<polygon fill="#F6C358" points="49.9800529,77.5 71.4663391,72.1188965 71.4663391,41.2189674 49.9800529,46.600071    "/>
		</g>
		<polygon fill="#F6C358" points="45.3758469,55.42099 23.8895607,50.0398903 28.4937649,41.2189674 49.9800529,46.600071   "/>
		<polygon fill="#EAAF47" points="53.458786,55.42099 74.945076,50.0398903 71.4663391,41.2189674 49.9800529,46.600071   "/>
	</g>
</g>
</svg>
