<?xml version="1.0" encoding="utf-8"?>
<!-- Generator: Adobe Illustrator 21.0.2, SVG Export Plug-In . SVG Version: 6.00 Build 0)  -->
<svg xmlns="http://www.w3.org/2000/svg" xmlns:xlink="http://www.w3.org/1999/xlink" version="1.1" id="Layer_1" x="0px" y="0px" viewBox="0 0 100 100" enable-background="new 0 0 100 100" xml:space="preserve" width="512" height="512">
<g>
	<circle fill="#334D5C" cx="50" cy="50" r="48"/>
	<path opacity="0.1" d="M96.8953857,60.2344742L64.5900269,27.9291763   c-3.2000122-3.3499756-7.710022-5.4300537-12.6900024-5.4300537h-1.3800049   c-9.6900024,0-17.5800171,7.8901367-17.5800171,17.5800781c0,0.3800049,0.210022,0.6899414,0.5100098,0.8699951v3.0799561   c-0.3300171,0.3699951-0.5400391,0.8601074-0.5400391,1.4000244c0,0.7999268,0.4500122,1.4799805,1.1100464,1.8399658   C32.5,48.4991226,30.4500122,48.8692398,29.039978,48.9592056h-1.6300049l2.3300171,2.3399658   c0.2800293,1.2600098,0.7900391,2.1199951,1.4000244,2.7099609l2.7799683,2.7800293c-0.8099976,0.2099609-1.7000122,0-1.7000122,0   c0.8500366,1.0300293,1.6000366,1.75,2.25,2.2600098l-0.7999878,0.2099609   c-2.5999756,0.6600342-4.4699707,2.9300537-4.6199951,5.6101074l-0.7299805,12.6298828l20.4702148,20.4702148   C49.1935425,97.9793472,49.5942383,97.9999771,50,97.9999771C72.9959106,97.9999771,92.2045288,81.8250504,96.8953857,60.2344742z    M43.9699707,68.5391617l0.7300415,0.7299805L43.9699707,68.5391617z"/>
	<g>
		<path fill="#64798A" d="M27.406065,48.9611893c0,0,8.1349659,0.7781296,8.6301403-5.729847    c0,0,0.6366501-16.199194,8.4886627-19.3117046c0,0,2.0339508-1.1366196,5.6545029-1.0564156    c5.0229645,0.1112709,9.7489624,2.6712666,12.6240616,6.7915058c2.2112465,3.1688919,4.1431236,7.8947716,3.6504784,14.4962196    c0,0,0.0774918,12.6409683-4.1293945,15.774765c0,0-16.3848724,1.9806862-25.297966,0.3536949    c0,0-1.7684746,0.1696434-4.8102455-3.4874916c0,0,2.8295555,0.6579361,2.971035-1.6057053    c0,0-4.3858109,0.8488655-5.4468937-3.8906364c0,0,2.2636433,0.5659103,5.8713245-1.8392105    C35.6117706,49.4563637,32.1455688,52.0029602,27.406065,48.9611893z"/>
		<path fill="#F6C358" d="M57.6101646,56.7919159h-0.0006905v-4.8078842H43.3052406v4.8078842l-2.9360275,0.750927    c0.6300697,5.0109825,4.9063301,14.5904655,10.0882378,14.5904655c5.1816788,0,9.4582138-9.5795403,10.0880547-14.59058    L57.6101646,56.7919159z"/>
		<path fill="#FCD462" d="M49.1748238,31.7486115h-8.6497459c-0.2101746,0.4265099-0.261097,6.6750717-0.4178886,7.139122    C38.7329788,38.8893204,37.6194,40.0456772,37.6194,42.171299c0,2.0688782,1.054966,4.2930756,2.3783875,4.4132729    c1.4108658,5.1325912,7.0887146,10.699379,10.4596176,10.699379c3.1217613,0,9.0487022-5.5667877,10.4596176-10.699379    c0.3278503-0.7861252,0.4741631-1.240921,0.5257339-2.1796265C61.8228111,37.4868317,56.1033707,31.7486115,49.1748238,31.7486115    z"/>
		<path fill="#64798A" d="M41.6816406,50.8399086l-0.3119392-11.1301689c0,0,0.695507-2.5123367,3.9412231-0.7735596    l1.5069389-2.0865288v3.3616295c0,0,7.0710182-8.2302017,7.1869354-9.968977s-13.9838715-0.138979-13.9838715-0.138979    l-3.4412193,11.1754494c0,0,1.7761154,4.9602623,1.7761154,5.3080177S41.6816406,50.8399086,41.6816406,50.8399086z"/>
		<g>
			<g>
				<path fill="#3A556A" d="M67.403244,42.8995667v4.2181625c1.1647491,0,2.1090164-0.9442673,2.1090164-2.1090813      C69.5122604,43.8438377,68.5679932,42.8995667,67.403244,42.8995667z"/>
				<path fill="#3A556A" d="M61.7459831,39.6639709c-0.3279076,0-0.5935555,0.2657509-0.5935555,0.5935059v9.5103302      c0,0.3278046,0.2656479,0.5935059,0.5935555,0.5935059h1.0986977V39.6639709H61.7459831z"/>
				<path fill="#27A2DB" d="M66.8825607,40.8102455h-1.0986938v8.4047928h1.0986938      c0.3279114,0,0.5935593-0.2657547,0.5935593-0.5935593v-7.2177277      C67.47612,41.0759468,67.2104721,40.8102455,66.8825607,40.8102455z"/>
				<path fill="#44C4A1" d="M65.7992783,39.3564682c-0.8815155-0.4948311-1.8267021-0.7055283-2.8304939-0.6541214      c-0.2121124,0.0108566-0.3761673,0.1761131-0.3761673,0.3641586v11.8999481      c0,0.1962967,0.1784515,0.3639336,0.4005013,0.3640213c1.0062256,0.0005417,1.9404678-0.2029381,2.792778-0.6366692      c0.1269455-0.0645943,0.2037964-0.188942,0.2037964-0.3184929V39.6686325      C65.9896927,39.5441513,65.9179077,39.423172,65.7992783,39.3564682z"/>
				<path fill="#E56353" d="M63.6793213,38.7127228v12.5823326c0.2077141-0.0203781,0.4109344-0.0545998,0.611908-0.0944443      v-12.397522C64.0894165,38.7627563,63.8864746,38.7286758,63.6793213,38.7127228z"/>
			</g>
			<g>
				<path fill="#3A556A" d="M35.0191803,43.3153038v4.2181625c-1.1647453,0-2.1090126-0.9442673-2.1090126-2.1090813      S33.854435,43.3153038,35.0191803,43.3153038z"/>
				<path fill="#3A556A" d="M40.676445,40.0797043c0.3279076,0,0.5935555,0.2657547,0.5935555,0.5935059v9.510334      c0,0.3278046-0.2656479,0.5935059-0.5935555,0.5935059h-1.0986977V40.0797043H40.676445z"/>
				<path fill="#27A2DB" d="M35.5398636,41.2259827h1.0986977v8.404789h-1.0986977      c-0.3279076,0-0.5935555-0.2657509-0.5935555-0.5935555v-7.2177277      C34.9463081,41.491684,35.211956,41.2259827,35.5398636,41.2259827z"/>
				<path fill="#44C4A1" d="M36.6231499,39.7722015c0.8815117-0.4948273,1.8266983-0.7055283,2.8304939-0.6541214      c0.2121124,0.0108566,0.3761673,0.1761131,0.3761673,0.3641586v11.8999519c0,0.1962967-0.1784515,0.3639336-0.4005013,0.3640213      c-1.0062294,0.0005379-1.940464-0.2029381-2.792778-0.6366692c-0.1269417-0.0645981-0.2038002-0.188942-0.2038002-0.3184929      V40.0843697C36.4327316,39.9598885,36.5045204,39.8389053,36.6231499,39.7722015z"/>
				<path fill="#E56353" d="M38.7431068,39.1284599v12.5823288c-0.2077179-0.0203781-0.4109344-0.0545998-0.611908-0.0944405      v-12.397522C38.3330154,39.1784897,38.5359535,39.1444092,38.7431068,39.1284599z"/>
			</g>
			<path fill="#3A556A" d="M64.6668472,48.7198486c-0.2763824-0.0670891-0.5487518,0.1001396-0.6198502,0.3720093     c-0.0125198,0.0485687-1.3303185,4.638031-12.0900307,5.1671295c-0.3549843-0.4462967-1.1262894-0.7576599-2.0272713-0.7576599     c-1.2361908,0-2.23806,0.5829201-2.23806,1.3020897c0,0.7191086,1.0018692,1.3020935,2.23806,1.3020935     c0.9440384,0,1.7473869-0.3409042,2.0765877-0.8218117c11.6191368-0.567524,12.9830055-5.7226982,13.037075-5.9505119     C65.1084518,49.0598145,64.9402161,48.7874413,64.6668472,48.7198486z"/>
			<g>
				<rect x="33.4519424" y="38.6946411" fill="#3A556A" width="1.0254021" height="6.7251954"/>
			</g>
			<g>
				<rect x="67.9450836" y="38.6946411" fill="#3A556A" width="1.0254021" height="6.7251954"/>
			</g>
			<path fill="#3A556A" d="M68.4580307,41.1049385c-0.5667801,0-1.0254059-0.4591293-1.0254059-1.0254021     c0-8.5627079-6.9665222-15.5287342-15.529232-15.5287342h-1.3851471c-8.562706,0-15.5282326,6.9660263-15.5282326,15.5287342     c0,0.5662727-0.4586258,1.0254021-1.0254021,1.0254021c-0.5667725,0-1.0254021-0.4591293-1.0254021-1.0254021     c0-9.6932545,7.8857841-17.5795383,17.5790367-17.5795383h1.3851471c9.6932526,0,17.5800362,7.8862839,17.5800362,17.5795383     C69.483429,40.6458092,69.0248032,41.1049385,68.4580307,41.1049385z"/>
		</g>
		<path fill="#27A2DB" d="M43.3052635,56.7918701l-4.3806152,1.120472l-5.2559357,1.3443375    c-2.5965519,0.6640968-4.4648571,2.9321976-4.6190681,5.607914L28.3208981,77.5h22.1365185V62.3618622L43.3052635,56.7918701z"/>
		<path fill="#2D93BA" d="M71.8651886,64.8645935c-0.1544647-2.6757164-2.0225143-4.9438171-4.6188126-5.6079788    l-5.2561913-1.3443375l-4.3799858-1.1204071l-7.1527824,5.5699921V77.5h22.1365166L71.8651886,64.8645935z"/>
		<polygon fill="#EBF0F3" points="50.3979263,62.05867 46.8914948,66.8598633 50.4573936,73.6371841 54.3668137,66.7197189   "/>
		<polygon fill="#D15241" points="51.7341385,66.493103 48.9585571,66.493103 48.2830276,71.2576828 50.4573936,73.6371841     50.4573936,73.6371841 52.4038124,71.3374252   "/>
		<polygon fill="#1C75A1" points="57.6101646,56.7919159 60.9409103,61.7862892 57.0719261,62.8656387 59.0064163,65.5101929     50.4573936,73.6371841   "/>
		<polygon fill="#2D93BA" points="43.2451553,56.7919159 39.9144096,61.7862892 43.7833939,62.8656387 41.8488998,65.5101929     50.4573936,73.6371841   "/>
		<polygon fill="#E56353" points="50.9283104,62.0537529 49.758461,62.0537529 48.1538925,65.0222473 48.9584923,66.5107193     51.728405,66.5107193 52.5330048,65.0222473   "/>
		<polygon fill="#D5D6DB" points="57.6101646,56.7919159 50.3979263,62.05867 53.4908867,66.493103   "/>
		<polygon fill="#D5D6DB" points="43.2853737,56.7919159 50.497612,62.05867 47.4046516,66.493103   "/>
		<rect x="59.2230568" y="72.8864517" fill="#FFFFFF" width="8.8632116" height="1.9818362"/>
	</g>
</g>
</svg>
